<?xml version="1.0" encoding="UTF-8" standalone="no"?>
<svg
   xmlns:dc="http://purl.org/dc/elements/1.1/"
   xmlns:cc="http://creativecommons.org/ns#"
   xmlns:rdf="http://www.w3.org/1999/02/22-rdf-syntax-ns#"
   xmlns:svg="http://www.w3.org/2000/svg"
   xmlns="http://www.w3.org/2000/svg"
   xmlns:sodipodi="http://sodipodi.sourceforge.net/DTD/sodipodi-0.dtd"
   xmlns:inkscape="http://www.inkscape.org/namespaces/inkscape"
   sodipodi:docname="drawing.svg"
   inkscape:version="1.0 (4035a4fb49, 2020-05-01)"
   id="svg8"
   version="1.1"
   viewBox="0 0 32 32"
   height="32"
   width="32">
  <defs
     id="defs2">
    <inkscape:path-effect
       effect="spiro"
       id="path-effect2815"
       is_visible="true"
       lpeversion="1" />
    <inkscape:path-effect
       effect="spiro"
       id="path-effect2811"
       is_visible="true"
       lpeversion="1" />
  </defs>
  <sodipodi:namedview
     inkscape:pagecheckerboard="true"
     inkscape:window-maximized="1"
     inkscape:window-y="-8"
     inkscape:window-x="-8"
     inkscape:window-height="1027"
     inkscape:window-width="1920"
     units="px"
     showgrid="false"
     inkscape:document-rotation="0"
     inkscape:current-layer="layer1"
     inkscape:document-units="px"
     inkscape:cy="19.192063"
     inkscape:cx="20.883177"
     inkscape:zoom="22.4"
     inkscape:pageshadow="2"
     inkscape:pageopacity="0.0"
     borderopacity="1.0"
     bordercolor="#666666"
     pagecolor="#ffffff"
     id="base" />
  <metadata
     id="metadata5">
    <rdf:RDF>
      <cc:Work
         rdf:about="">
        <dc:format>image/svg+xml</dc:format>
        <dc:type
           rdf:resource="http://purl.org/dc/dcmitype/StillImage" />
        <dc:title />
      </cc:Work>
    </rdf:RDF>
  </metadata>
  <g
     id="layer1"
     inkscape:groupmode="layer"
     inkscape:label="Layer 1">
    <rect
       y="0.48484799"
       x="0.48484799"
       height="31.030304"
       width="31.030304"
       id="rect16"
       style="fill:#000000;fill-opacity:0;fill-rule:evenodd;stroke:#000000;stroke-width:0.969696;stroke-opacity:1" />
    <path
       style="fill:none;stroke:#000000;stroke-width:1px;stroke-linecap:butt;stroke-linejoin:miter;stroke-opacity:1"
       d="M 0.48484799,0.48484799 C 2.1650807,3.0926337 4.9632244,4.9527505 8.0180858,5.4927045 9.379239,5.7332916 10.770128,5.7222348 12.151368,5.7751029 c 1.38124,0.052868 2.781553,0.1750623 4.074207,0.6646196 1.261481,0.4777514 2.381582,1.2966812 3.282027,2.3010613 0.900445,1.0043801 1.585895,2.1907602 2.084409,3.4441812 1.273269,3.201396 1.326554,6.764285 2.399112,10.038391 1.268525,3.872316 4.000158,7.245746 7.524029,9.291796"
       id="path2809"
       inkscape:path-effect="#path-effect2811"
       inkscape:original-d="M 0.48484799,0.48484799 C 2.9969273,2.1551335 5.5080065,3.824419 8.0180858,5.4927045 10.528165,7.16099 13.490745,6.1250498 16.225575,6.4397225 c 2.73483,0.3146726 3.578624,3.8311615 5.366436,5.7452425 1.787811,1.914081 1.600408,6.693261 2.399112,10.038391 0.798704,3.34513 5.017019,6.195531 7.524029,9.291796" />
    <path
       style="fill:none;stroke:#000000;stroke-width:1px;stroke-linecap:butt;stroke-linejoin:miter;stroke-opacity:1"
       d="m 21.0238,10.606602 c -1.476179,-0.6192079 -3.136065,-0.7924406 -4.708287,-0.491377 -1.572223,0.301064 -3.050687,1.075257 -4.193682,2.196009 -1.278432,1.253553 -2.115542,2.900497 -2.6516509,4.608821 -0.9346018,2.978133 -1.025359,6.225461 -2.3991123,9.028238 -1.301903,2.656185 -3.7502745,4.725618 -6.58621981,5.566859"
       id="path2813"
       inkscape:path-effect="#path-effect2815"
       inkscape:original-d="m 21.0238,10.606602 c -2.966323,0.569211 -5.933646,1.137421 -8.901969,1.704632 -2.9683236,0.567211 -1.766767,3.073547 -2.6516509,4.608821 -0.8848835,1.535274 -1.5984082,6.019826 -2.3991123,9.028238 -0.8007041,3.008413 -4.3898132,3.712239 -6.58621981,5.566859" />
    <path
       id="path867"
       d="M 30.546339,30.257696 C 27.753986,28.257765 25.642967,25.424825 24.544891,22.20389 24.162212,21.081398 23.921775,20.046056 23.473022,17.588348 22.922278,14.572049 22.634483,13.410184 22.100974,12.049206 21.939502,11.637291 21.342712,10.371165 21.204168,10.146578 19.648938,7.6254607 17.541463,6.0609892 15.019163,5.5551781 14.228741,5.39667 13.416552,5.3137042 12.155498,5.2626525 9.2938198,5.1468019 8.69313,5.0978196 7.7581769,4.9040793 6.1755631,4.5761313 4.5444744,3.7923823 3.209631,2.7184726 2.7842239,2.3762236 1.6472084,1.24343 1.5536798,1.0686703 L 1.5050356,0.97777767 H 16.261071 31.017105 V 15.776885 c 0,8.139509 -0.0059,14.799107 -0.01318,14.799107 -0.0072,0 -0.213162,-0.143233 -0.457589,-0.318296 z"
       style="fill:#afdde9;fill-opacity:1;stroke:#000000;stroke-width:0.0446429;stroke-opacity:1" />
    <path
       id="path869"
       d="m 3.0505877,30.985198 c 0.023326,-0.02047 0.1830357,-0.123783 0.3549107,-0.229582 1.8881366,-1.162249 3.5421659,-3.105104 4.4129544,-5.183543 0.4864866,-1.161169 0.7941857,-2.310849 1.3251973,-4.951438 0.4183085,-2.080145 0.623584,-2.922895 0.9399759,-3.859036 0.904077,-2.674984 2.371123,-4.490611 4.43548,-5.489383 1.243357,-0.601557 2.632939,-0.867147 3.919874,-0.749202 0.623898,0.05718 1.203415,0.165947 1.685268,0.316305 0.278336,0.08685 0.295968,0.101091 0.432027,0.348878 0.249066,0.453594 0.620748,1.353277 0.853667,2.066366 0.380556,1.165078 0.573758,2.01124 1.034609,4.53125 0.585198,3.199954 0.902908,4.411035 1.565191,5.966356 1.189187,2.792717 3.230533,5.384645 5.645756,7.168504 l 0.133929,0.09892 -13.390625,0.0014 C 9.0339582,31.021784 3.0272618,31.005672 3.0505877,30.985199 Z"
       style="fill:#d7eef4;fill-opacity:1;stroke:#000000;stroke-width:0.0446429;stroke-opacity:1" />
    <path
       id="path871"
       d="M 0.97246268,16.426687 V 2.0554719 L 1.586302,2.6662701 c 2.0514277,2.0412643 4.5247915,3.1997224 7.4443026,3.4867144 0.2701478,0.026556 1.2846564,0.078637 2.2544644,0.1157363 1.883022,0.072033 2.648622,0.1402355 3.506963,0.3124122 1.487807,0.298442 2.808177,1.0052143 3.910381,2.093162 0.376597,0.3717264 0.815772,0.8708554 0.789429,0.8971987 -0.01109,0.011093 -0.23997,-0.00908 -0.508614,-0.04483 -1.367001,-0.1819138 -2.957702,0.00291 -4.219679,0.4902853 -2.69711,1.041625 -4.590199,3.177991 -5.6815627,6.411687 -0.3059013,0.906383 -0.5302281,1.828575 -0.9471647,3.893736 -0.5257322,2.604041 -0.7487674,3.471246 -1.1674652,4.539334 -0.8063473,2.056972 -2.1773027,3.733782 -4.0439222,4.946105 -0.4796402,0.311515 -1.2695945,0.725214 -1.7165965,0.898981 l -0.23437502,0.09111 z"
       style="fill:#87cdde;fill-opacity:1;stroke:#000000;stroke-width:0.0446429;stroke-opacity:1" />
  </g>
</svg>
