<?xml version="1.0" encoding="UTF-8" standalone="no"?>
<svg
   xmlns:dc="http://purl.org/dc/elements/1.1/"
   xmlns:cc="http://creativecommons.org/ns#"
   xmlns:rdf="http://www.w3.org/1999/02/22-rdf-syntax-ns#"
   xmlns:svg="http://www.w3.org/2000/svg"
   xmlns="http://www.w3.org/2000/svg"
   xmlns:sodipodi="http://sodipodi.sourceforge.net/DTD/sodipodi-0.dtd"
   xmlns:inkscape="http://www.inkscape.org/namespaces/inkscape"
   width="32"
   height="32"
   viewBox="0 0 32 32"
   version="1.1"
   id="svg8"
   inkscape:version="1.0 (4035a4fb49, 2020-05-01)"
   sodipodi:docname="drawing2.svg">
  <defs
     id="defs2">
    <inkscape:path-effect
       effect="spiro"
       id="path-effect1130"
       is_visible="true"
       lpeversion="1" />
    <inkscape:path-effect
       effect="spiro"
       id="path-effect1118"
       is_visible="true"
       lpeversion="1" />
    <inkscape:path-effect
       effect="bspline"
       id="path-effect1020"
       is_visible="true"
       lpeversion="1"
       weight="33.333333"
       steps="2"
       helper_size="0"
       apply_no_weight="true"
       apply_with_weight="true"
       only_selected="false" />
    <inkscape:path-effect
       lpeversion="1"
       is_visible="true"
       id="path-effect2815"
       effect="spiro" />
    <inkscape:path-effect
       lpeversion="1"
       is_visible="true"
       id="path-effect2811"
       effect="spiro" />
  </defs>
  <sodipodi:namedview
     id="base"
     pagecolor="#ffffff"
     bordercolor="#666666"
     borderopacity="1.0"
     inkscape:pageopacity="0.0"
     inkscape:pageshadow="2"
     inkscape:zoom="22.4"
     inkscape:cx="20.883177"
     inkscape:cy="15.350288"
     inkscape:document-units="px"
     inkscape:current-layer="layer1"
     inkscape:document-rotation="0"
     showgrid="false"
     units="px"
     inkscape:window-width="1920"
     inkscape:window-height="1027"
     inkscape:window-x="-8"
     inkscape:window-y="-8"
     inkscape:window-maximized="1"
     inkscape:pagecheckerboard="true"
     showguides="false" />
  <metadata
     id="metadata5">
    <rdf:RDF>
      <cc:Work
         rdf:about="">
        <dc:format>image/svg+xml</dc:format>
        <dc:type
           rdf:resource="http://purl.org/dc/dcmitype/StillImage" />
        <dc:title />
      </cc:Work>
    </rdf:RDF>
  </metadata>
  <g
     inkscape:label="Layer 1"
     inkscape:groupmode="layer"
     id="layer1">
    <rect
       style="fill:#000000;fill-opacity:0;fill-rule:evenodd;stroke:#000000;stroke-width:0.969696;stroke-opacity:1"
       id="rect16"
       width="31.030304"
       height="31.030304"
       x="0.48484799"
       y="0.48484799" />
    <ellipse
       style="fill:#000000;fill-opacity:0;stroke:#000000;stroke-width:1.27007;stroke-opacity:1"
       id="path932"
       cx="9.3214264"
       cy="22.687502"
       rx="6.8649664"
       ry="7.0524678" />
    <path
       style="fill:#00d4aa;fill-opacity:0;stroke:#000000;stroke-width:1.3509px;stroke-linecap:butt;stroke-linejoin:miter;stroke-opacity:1"
       d="M 15.033943,18.702548 C 14.976064,14.118715 14.918174,9.5340278 16.242128,6.8304214 17.566081,4.126815 20.270121,3.3056818 23.041689,2.6891178 25.813257,2.0725537 28.651945,1.6603633 31.488782,1.2484418"
       id="path1018"
       inkscape:path-effect="#path-effect1020"
       inkscape:original-d="M 15.033943,18.702548 C 14.978124,14.118689 14.92023,9.5340018 14.860274,4.9484849 17.566486,4.1281481 20.270526,3.3070152 22.972553,2.4850369 25.813418,2.0736592 28.652106,1.6614691 31.488782,1.2484418" />
    <path
       style="fill:none;stroke:#000000;stroke-width:0.957051px;stroke-linecap:butt;stroke-linejoin:miter;stroke-opacity:1"
       d="m 15.964473,25.089286 c 0.90277,1.267653 2.411283,2.082636 3.966375,2.142857 1.319581,0.0511 2.638825,-0.425133 3.674211,-1.244816 1.035387,-0.819682 1.791086,-1.968456 2.214015,-3.21947 0.368423,-1.089787 0.490712,-2.244523 0.632229,-3.386163 0.141518,-1.141641 0.308663,-2.295934 0.758046,-3.354908 0.749506,-1.766219 2.299803,-3.173894 4.129937,-3.75"
       id="path1116"
       inkscape:path-effect="#path-effect1118"
       inkscape:original-d="m 15.964473,25.089286 c 1.323042,0.715285 2.645166,1.429571 3.966375,2.142857 1.321209,0.713285 3.9264,-2.975191 5.888226,-4.464286 1.961826,-1.489095 0.927767,-4.493048 1.390275,-6.741071 0.462509,-2.248024 2.754207,-2.499 4.129937,-3.75" />
    <path
       style="fill:none;stroke:#000000;stroke-width:0.858176px;stroke-linecap:butt;stroke-linejoin:miter;stroke-opacity:1"
       d="M 7.5543646,15.92413 C 7.4537955,14.648214 7.1405836,13.389312 6.6315469,12.215021 6.0988686,10.986192 5.3124473,9.8125593 4.1567176,9.1357609 3.0938925,8.5133677 1.7624563,8.369632 0.59128566,8.7508533"
       id="path1128"
       inkscape:path-effect="#path-effect1130"
       inkscape:original-d="M 7.5543646,15.92413 C 7.2616803,14.700208 6.9400924,13.452175 6.6315469,12.215021 6.3230014,10.977867 4.9826003,10.162965 4.1567176,9.1357609 3.3308349,8.1085569 1.7807025,8.8799397 0.59128566,8.7508533" />
    <path
       id="path972"
       d="m 14.097463,16.726321 c -0.596636,-0.523301 -1.603233,-1.086487 -2.448817,-1.3701 -0.801388,-0.26879 -1.227009,-0.333572 -2.2163619,-0.337348 -0.4910714,-0.0019 -1.0385044,0.0137 -1.2165178,0.03461 -0.3150054,0.037 -0.3236607,0.03539 -0.3236607,-0.05995 0,-0.163634 -0.1751027,-0.976773 -0.3160844,-1.467826 C 6.9077283,11.197967 5.7384815,9.4839907 4.2701702,8.6797184 3.4203091,8.2142041 2.3401763,8.0152835 1.2961234,8.132009 L 0.97246271,8.1681943 V 4.5717412 0.975288 L 14.711302,0.981368 c 7.556362,0.003344 13.688616,0.014638 13.627232,0.0250982 -0.06138,0.01046 -0.709112,0.1182659 -1.439397,0.239568 -4.319337,0.717453 -6.718073,1.3466414 -8.20346,2.151767 -2.547169,1.3806449 -3.71303,3.4451144 -4.149437,7.3476908 -0.147026,1.314787 -0.189695,2.128936 -0.219421,4.186717 l -0.02846,1.970313 z"
       style="fill:#004455;fill-opacity:1;stroke:#000000;stroke-width:0.0446429" />
    <path
       id="path974"
       d="M 19.566213,26.703179 C 19.25833,26.66258 18.658625,26.491757 18.32965,26.35095 17.718252,26.08926 16.982439,25.55678 16.647045,25.133311 l -0.133987,-0.169173 0.08598,-0.331479 c 0.150619,-0.580665 0.22442,-1.224393 0.224189,-1.955494 -4.21e-4,-1.338138 -0.242909,-2.377644 -0.818763,-3.509913 L 15.732011,18.631538 15.7142,16.778859 c -0.05515,-5.736467 0.392893,-8.6326679 1.607206,-10.3892326 0.29659,-0.4290332 0.828549,-0.9562209 1.315998,-1.304194 0.454667,-0.3245713 1.441654,-0.8166861 2.096259,-1.045202 1.598977,-0.5581859 4.624966,-1.1721732 9.042589,-1.8347838 0.582038,-0.087302 1.099338,-0.15873 1.149553,-0.15873 h 0.0913 v 4.9025839 4.9025835 l -0.376876,0.146599 c -0.207282,0.08063 -0.574288,0.260652 -0.815568,0.40005 -1.585813,0.916193 -2.727527,2.314743 -3.292081,4.032655 -0.253812,0.772339 -0.387076,1.446765 -0.581291,2.941808 -0.303247,2.334366 -0.488455,3.111471 -0.972383,4.079971 -0.879527,1.760224 -2.352019,2.910628 -4.112738,3.213133 -0.364594,0.06264 -0.97424,0.08003 -1.299956,0.03708 z"
       style="fill:#0088aa;fill-opacity:1;stroke:#000000;stroke-width:0.0446429" />
    <path
       id="path982"
       d="M 0.97246271,20.065316 V 9.1107015 L 1.0729091,9.0796101 c 0.055246,-0.0171 0.3632425,-0.042038 0.6844377,-0.055418 0.8809552,-0.036697 1.5227561,0.1246733 2.2858276,0.5747333 0.379908,0.2240699 1.1512067,1.0121956 1.4759879,1.5081876 0.6218995,0.94974 1.1298901,2.236268 1.3845817,3.506568 0.1607834,0.801922 0.1705879,0.719489 -0.095947,0.806695 -0.7289563,0.238505 -1.7581034,0.853787 -2.4143056,1.443407 -1.3855489,1.244963 -2.2357681,2.839686 -2.5104512,4.708755 -0.1013358,0.689536 -0.065792,2.049947 0.070003,2.679268 0.572368,2.652565 2.3304666,4.741224 4.7751359,5.672964 1.8908763,0.720672 4.0842929,0.599979 5.9261469,-0.326087 1.332015,-0.669724 2.641283,-1.962037 3.281079,-3.238587 0.07531,-0.15026 0.143668,-0.280651 0.15191,-0.289756 0.0082,-0.0091 0.131418,0.08787 0.273727,0.215492 0.751927,0.674349 1.809862,1.189059 2.798268,1.361423 0.515289,0.08986 1.416563,0.08847 1.950375,-0.003 2.2472,-0.385092 4.158386,-2.041929 5.065856,-4.391668 0.327977,-0.849241 0.503989,-1.699405 0.757992,-3.661219 0.228826,-1.767349 0.38837,-2.498298 0.720885,-3.302717 0.544555,-1.31739 1.569765,-2.431195 2.876047,-3.124586 0.230822,-0.122523 0.434743,-0.223155 0.453158,-0.223626 0.01842,-4.71e-4 0.03348,4.067224 0.03348,9.039322 V 31.01994 H 15.994784 0.97246271 Z"
       style="fill:#afdde9;fill-opacity:1;stroke:#000000;stroke-width:0.0446429" />
    <path
       id="path984"
       d="M 8.7626413,29.05506 C 7.2905718,28.900486 6.0767387,28.316763 5.0096885,27.250293 4.0862553,26.327363 3.5302421,25.298491 3.2414344,23.978237 3.1021713,23.341609 3.1009736,22.032784 3.2390845,21.410176 3.3688793,20.825057 3.5643078,20.25398 3.7882156,19.805516 5.2665657,16.844532 8.648556,15.527724 11.621428,16.755584 c 1.914777,0.790844 3.321789,2.516728 3.77897,4.6354 0.140648,0.651791 0.141852,1.95389 0.0024,2.583534 -0.297549,1.343372 -0.849913,2.358593 -1.792976,3.295413 -0.534981,0.53144 -0.898622,0.801697 -1.531352,1.138098 -0.93638,0.49784 -2.2659034,0.757276 -3.3158191,0.647031 z"
       style="fill:#d6dfe2;fill-opacity:1;stroke:#000000;stroke-width:0.0446429" />
  </g>
</svg>
